<svg width="24" height="24" viewBox="0 0 24 24" fill="none" xmlns="http://www.w3.org/2000/svg">
<circle cx="12.5" cy="11.5" r="7.5" fill="black"/>
<path d="M14.6579 23H14.3579C13.8379 23 13.3379 22.95 12.8579 22.85C12.3779 22.75 11.9479 22.57 11.5679 22.31C11.2079 22.05 10.9079 21.69 10.6679 21.23C10.4479 20.77 10.3379 20.17 10.3379 19.43V1.22H10.8179C11.2979 1.22 11.7679 1.28 12.2279 1.4C12.6879 1.5 13.0979 1.69 13.4579 1.97C13.8179 2.23 14.1079 2.59 14.3279 3.05C14.5479 3.51 14.6579 4.1 14.6579 4.82V23Z" fill="url(#paint0_linear_1_94)"/>
<path d="M14.6579 23V24H15.6579V23H14.6579ZM12.8579 22.85L12.6539 23.829L12.6539 23.829L12.8579 22.85ZM11.5679 22.31L10.9824 23.1207L10.9927 23.1281L11.0032 23.1353L11.5679 22.31ZM10.6679 21.23L9.76576 21.6615L9.77326 21.6771L9.78131 21.6926L10.6679 21.23ZM10.3379 1.22V0.22H9.33789V1.22H10.3379ZM12.2279 1.4L11.9755 2.36762L11.9954 2.37281L12.0155 2.37718L12.2279 1.4ZM13.4579 1.97L12.844 2.75935L12.858 2.77027L12.8724 2.78068L13.4579 1.97ZM14.3279 3.05L15.23 2.61854L15.23 2.61854L14.3279 3.05ZM14.6579 22H14.3579V24H14.6579V22ZM14.3579 22C13.9023 22 13.4708 21.9562 13.0618 21.871L12.6539 23.829C13.2049 23.9438 13.7735 24 14.3579 24V22ZM13.0618 21.871C12.7026 21.7962 12.3967 21.6654 12.1326 21.4847L11.0032 23.1353C11.4991 23.4746 12.0532 23.7038 12.6539 23.829L13.0618 21.871ZM12.1534 21.4993C11.939 21.3445 11.7346 21.1127 11.5545 20.7674L9.78131 21.6926C10.0812 22.2673 10.4767 22.7555 10.9824 23.1207L12.1534 21.4993ZM11.57 20.7985C11.4368 20.52 11.3379 20.083 11.3379 19.43H9.33789C9.33789 20.257 9.45898 21.02 9.76576 21.6615L11.57 20.7985ZM11.3379 19.43V1.22H9.33789V19.43H11.3379ZM10.3379 2.22H10.8179V0.22H10.3379V2.22ZM10.8179 2.22C11.2135 2.22 11.5987 2.26933 11.9755 2.36762L12.4803 0.432382C11.9371 0.290672 11.3822 0.22 10.8179 0.22V2.22ZM12.0155 2.37718C12.3341 2.44645 12.6059 2.5742 12.844 2.75935L14.0718 1.18065C13.5899 0.805794 13.0417 0.553552 12.4403 0.422823L12.0155 2.37718ZM12.8724 2.78068C13.0779 2.92906 13.2671 3.14977 13.4258 3.48146L15.23 2.61854C14.9487 2.03023 14.5579 1.53094 14.0434 1.15932L12.8724 2.78068ZM13.4258 3.48145C13.5604 3.76307 13.6579 4.19186 13.6579 4.82H15.6579C15.6579 4.00813 15.5353 3.25693 15.23 2.61854L13.4258 3.48145ZM13.6579 4.82V23H15.6579V4.82H13.6579Z" fill="black"/>
<path d="M23 9.34211V9.64211C23 10.1621 22.95 10.6621 22.85 11.1421C22.75 11.6221 22.57 12.0521 22.31 12.4321C22.05 12.7921 21.69 13.0921 21.23 13.3321C20.77 13.5521 20.17 13.6621 19.43 13.6621H1.22V13.1821C1.22 12.7021 1.28 12.2321 1.4 11.7721C1.5 11.3121 1.69 10.9021 1.97 10.5421C2.23 10.1821 2.59 9.89211 3.05 9.67211C3.51 9.45211 4.1 9.34211 4.82 9.34211H23Z" fill="url(#paint1_linear_1_94)"/>
<path d="M23 9.34211H23.5V8.84211H23V9.34211ZM22.85 11.1421L23.3395 11.2441L23.3395 11.2441L22.85 11.1421ZM22.31 12.4321L22.7155 12.7249L22.7227 12.7145L22.31 12.4321ZM21.23 13.3321L21.4457 13.7832L21.4536 13.7794L21.4613 13.7754L21.23 13.3321ZM1.22 13.6621H0.72V14.1621H1.22V13.6621ZM1.4 11.7721L1.88381 11.8983L1.8864 11.8884L1.88859 11.8783L1.4 11.7721ZM1.97 10.5421L2.36468 10.8491L2.37013 10.8421L2.37534 10.8349L1.97 10.5421ZM3.05 9.67211L2.83427 9.22104L2.83427 9.22104L3.05 9.67211ZM22.5 9.34211V9.64211H23.5V9.34211H22.5ZM22.5 9.64211C22.5 10.1299 22.4531 10.5956 22.3605 11.0401L23.3395 11.2441C23.4469 10.7286 23.5 10.1943 23.5 9.64211H22.5ZM22.3605 11.0401C22.2731 11.4598 22.1177 11.8277 21.8973 12.1498L22.7227 12.7145C23.0223 12.2765 23.2269 11.7844 23.3395 11.2441L22.3605 11.0401ZM21.9047 12.1394C21.6973 12.4265 21.4014 12.6787 20.9987 12.8888L21.4613 13.7754C21.9786 13.5055 22.4027 13.1577 22.7153 12.7249L21.9047 12.1394ZM21.0143 12.881C20.645 13.0577 20.1265 13.1621 19.43 13.1621V14.1621C20.2135 14.1621 20.895 14.0466 21.4457 13.7832L21.0143 12.881ZM19.43 13.1621H1.22V14.1621H19.43V13.1621ZM1.72 13.6621V13.1821H0.72V13.6621H1.72ZM1.72 13.1821C1.72 12.7443 1.77466 12.3167 1.88381 11.8983L0.91619 11.6459C0.785336 12.1475 0.72 12.6599 0.72 13.1821H1.72ZM1.88859 11.8783C1.97322 11.489 2.1321 11.1481 2.36468 10.8491L1.57532 10.2351C1.2479 10.6561 1.02678 11.1352 0.911411 11.6659L1.88859 11.8783ZM2.37534 10.8349C2.57953 10.5521 2.86988 10.3125 3.26573 10.1232L2.83427 9.22104C2.31011 9.47173 1.88047 9.81209 1.56466 10.2494L2.37534 10.8349ZM3.26573 10.1232C3.63653 9.94583 4.14593 9.84211 4.82 9.84211V8.84211C4.05407 8.84211 3.38346 8.95838 2.83427 9.22104L3.26573 10.1232ZM4.82 9.84211H23V8.84211H4.82V9.84211Z" fill="black"/>
<path d="M14.6579 23H14.3579C13.8379 23 13.3379 22.95 12.8579 22.85C12.3779 22.75 11.9479 22.57 11.5679 22.31C11.2079 22.05 10.9079 21.69 10.6679 21.23C10.4479 20.77 10.3379 20.17 10.3379 19.43V1.22H10.8179C11.2979 1.22 11.7679 1.28 12.2279 1.4C12.6879 1.5 13.0979 1.69 13.4579 1.97C13.8179 2.23 14.1079 2.59 14.3279 3.05C14.5479 3.51 14.6579 4.1 14.6579 4.82V23Z" fill="url(#paint2_linear_1_94)"/>
<defs>
<linearGradient id="paint0_linear_1_94" x1="12.5" y1="7" x2="12.5" y2="18" gradientUnits="userSpaceOnUse">
<stop stop-color="#83BAE1"/>
<stop offset="1" stop-color="#BAE183"/>
</linearGradient>
<linearGradient id="paint1_linear_1_94" x1="12" y1="11.5" x2="23" y2="11.5" gradientUnits="userSpaceOnUse">
<stop stop-color="#83BAE1"/>
<stop offset="1" stop-color="#BAE183"/>
</linearGradient>
<linearGradient id="paint2_linear_1_94" x1="12.5" y1="7" x2="12.5" y2="18" gradientUnits="userSpaceOnUse">
<stop stop-color="#83BAE1"/>
<stop offset="1" stop-color="#BAE183"/>
</linearGradient>
</defs>
</svg>
