<svg width="115" height="64" viewBox="0 0 115 64" fill="none" xmlns="http://www.w3.org/2000/svg">
<path d="M5.37188 11.04C5.37188 9.22666 6.01188 7.70666 7.29188 6.48C8.57188 5.2 10.0919 4.56 11.8519 4.56C13.6119 4.56 15.1052 5.2 16.3319 6.48C17.6119 7.70666 18.2519 9.22666 18.2519 11.04C18.2519 12.8533 17.6119 14.3733 16.3319 15.6C15.1052 16.8267 13.6119 17.44 11.8519 17.44C10.0919 17.44 8.57188 16.8267 7.29188 15.6C6.01188 14.3733 5.37188 12.8533 5.37188 11.04ZM6.57188 23.36H7.45187C10.2252 23.36 12.5452 24.1067 14.4119 25.6C16.3319 27.0933 17.2919 29.4667 17.2919 32.72V64H16.8119C15.5852 64 14.3585 63.84 13.1319 63.52C11.9585 63.2 10.8652 62.6933 9.85188 62C8.89188 61.2533 8.09188 60.32 7.45187 59.2C6.86521 58.0267 6.57188 56.5867 6.57188 54.88V23.36ZM45.1394 19.28C45.1394 18.6933 45.086 18.1067 44.9794 17.52C44.926 16.88 44.766 16.32 44.4994 15.84C44.286 15.3067 43.9394 14.88 43.4594 14.56C43.0327 14.24 42.4194 14.08 41.6194 14.08C40.606 14.08 39.7527 14.4 39.0594 15.04C38.7394 14.1867 38.5794 13.4133 38.5794 12.72C38.5794 11.8667 38.7127 11.04 38.9794 10.24C39.2994 9.38666 39.7794 8.64 40.4194 8C41.0594 7.36 41.8594 6.85333 42.8194 6.48C43.8327 6.05333 45.0594 5.84 46.4994 5.84C49.6994 5.84 52.1794 6.8 53.9394 8.72C55.6994 10.64 56.5794 13.28 56.5794 16.64V64C55.1394 64 53.726 63.8933 52.3394 63.68C51.006 63.4667 49.7794 63.04 48.6594 62.4C47.5927 61.7067 46.7394 60.6933 46.0994 59.36C45.4594 58.0267 45.1394 56.24 45.1394 54V19.28ZM37.3794 64H36.5794C35.1927 64 33.8594 63.8667 32.5794 63.6C31.2994 63.3333 30.1527 62.8533 29.1394 62.16C28.1794 61.4667 27.3794 60.5067 26.7394 59.28C26.1527 58.0533 25.8594 56.4533 25.8594 54.48V5.92H27.1394C28.4194 5.92 29.6727 6.08 30.8994 6.4C32.126 6.66666 33.2194 7.17333 34.1794 7.92C35.1394 8.61333 35.9127 9.57333 36.4994 10.8C37.086 12.0267 37.3794 13.6 37.3794 15.52V64ZM64.3394 19.28C64.3394 18.6933 64.286 18.1067 64.1794 17.52C64.126 16.88 63.966 16.32 63.6994 15.84C63.486 15.3067 63.1394 14.88 62.6594 14.56C62.2327 14.24 61.6194 14.08 60.8194 14.08C59.806 14.08 58.9527 14.4 58.2594 15.04C57.9394 14.1867 57.7794 13.4133 57.7794 12.72C57.7794 11.8667 57.9127 11.04 58.1794 10.24C58.4994 9.38666 58.9794 8.64 59.6194 8C60.2594 7.36 61.0594 6.85333 62.0194 6.48C63.0327 6.05333 64.2594 5.84 65.6994 5.84C68.8994 5.84 71.3794 6.8 73.1394 8.72C74.8994 10.64 75.7794 13.28 75.7794 16.64V64C74.3394 64 72.926 63.8933 71.5394 63.68C70.206 63.4667 68.9794 63.04 67.8594 62.4C66.7927 61.7067 65.9394 60.6933 65.2994 59.36C64.6594 58.0267 64.3394 56.24 64.3394 54V19.28ZM95.27 64H94.47C93.0833 64 91.75 63.8667 90.47 63.6C89.19 63.3333 88.0433 62.8533 87.03 62.16C86.07 61.4667 85.27 60.5067 84.63 59.28C84.0433 58.0533 83.75 56.4533 83.75 54.48V15.52C83.75 13.6 84.0433 12.0267 84.63 10.8C85.2167 9.57333 85.99 8.61333 86.95 7.92C87.91 7.17333 89.0033 6.66666 90.23 6.4C91.4567 6.08 92.71 5.92 93.99 5.92H95.27V64ZM112.79 56.32C112.79 57.2267 112.63 58.1333 112.31 59.04C111.99 59.9467 111.483 60.7733 110.79 61.52C110.097 62.2133 109.243 62.8 108.23 63.28C107.217 63.76 106.017 64 104.63 64C102.39 64 100.497 63.3867 98.95 62.16C97.4567 60.88 96.71 59.12 96.71 56.88C96.71 56.4533 96.71 56.08 96.71 55.76C96.7633 55.3867 96.87 54.9867 97.03 54.56C97.7233 55.2 98.5767 55.52 99.59 55.52C100.39 55.52 101.057 55.28 101.59 54.8C102.123 54.2667 102.39 53.4933 102.39 52.48V48.56C102.817 48.4533 103.35 48.4 103.99 48.4C104.737 48.4 105.617 48.5067 106.63 48.72C107.643 48.88 108.603 49.2533 109.51 49.84C110.417 50.4267 111.19 51.2533 111.83 52.32C112.47 53.3333 112.79 54.6667 112.79 56.32ZM112.79 13.52C112.79 15.2267 112.47 16.5867 111.83 17.6C111.19 18.6133 110.417 19.4133 109.51 20C108.603 20.5867 107.643 20.9867 106.63 21.2C105.617 21.36 104.737 21.44 103.99 21.44C103.35 21.44 102.817 21.3867 102.39 21.28V17.6C102.39 16.64 102.15 15.8667 101.67 15.28C101.19 14.64 100.497 14.32 99.59 14.32C98.5767 14.32 97.7233 14.64 97.03 15.28C96.87 14.8533 96.7633 14.48 96.71 14.16C96.71 13.7867 96.71 13.3867 96.71 12.96C96.71 12.32 96.8167 11.6 97.03 10.8C97.2967 9.94666 97.7233 9.17333 98.31 8.48C98.8967 7.73333 99.67 7.12 100.63 6.64C101.643 6.10666 102.923 5.84 104.47 5.84C105.59 5.84 106.657 6.02666 107.67 6.4C108.683 6.77333 109.563 7.30666 110.31 8C111.057 8.69333 111.643 9.52 112.07 10.48C112.55 11.3867 112.79 12.4 112.79 13.52Z" fill="url(#paint0_linear_1_141)"/>
<circle cx="12.5" cy="11.5" r="7.5" fill="black"/>
<path d="M14.6579 23H14.3579C13.8379 23 13.3379 22.95 12.8579 22.85C12.3779 22.75 11.9479 22.57 11.5679 22.31C11.2079 22.05 10.9079 21.69 10.6679 21.23C10.4479 20.77 10.3379 20.17 10.3379 19.43V1.22H10.8179C11.2979 1.22 11.7679 1.28 12.2279 1.4C12.6879 1.5 13.0979 1.69 13.4579 1.97C13.8179 2.23 14.1079 2.59 14.3279 3.05C14.5479 3.51 14.6579 4.1 14.6579 4.82V23Z" fill="url(#paint1_linear_1_141)"/>
<path d="M14.6579 23V24H15.6579V23H14.6579ZM12.8579 22.85L12.6539 23.829L12.6539 23.829L12.8579 22.85ZM11.5679 22.31L10.9824 23.1207L10.9927 23.1281L11.0032 23.1353L11.5679 22.31ZM10.6679 21.23L9.76576 21.6615L9.77326 21.6771L9.78131 21.6926L10.6679 21.23ZM10.3379 1.22V0.22H9.33789V1.22H10.3379ZM12.2279 1.4L11.9755 2.36762L11.9954 2.37281L12.0155 2.37718L12.2279 1.4ZM13.4579 1.97L12.844 2.75935L12.858 2.77027L12.8724 2.78068L13.4579 1.97ZM14.3279 3.05L15.23 2.61854L15.23 2.61854L14.3279 3.05ZM14.6579 22H14.3579V24H14.6579V22ZM14.3579 22C13.9023 22 13.4708 21.9562 13.0618 21.871L12.6539 23.829C13.2049 23.9438 13.7735 24 14.3579 24V22ZM13.0618 21.871C12.7026 21.7962 12.3967 21.6654 12.1326 21.4847L11.0032 23.1353C11.4991 23.4746 12.0532 23.7038 12.6539 23.829L13.0618 21.871ZM12.1534 21.4993C11.939 21.3445 11.7346 21.1127 11.5545 20.7674L9.78131 21.6926C10.0812 22.2673 10.4767 22.7555 10.9824 23.1207L12.1534 21.4993ZM11.57 20.7985C11.4368 20.52 11.3379 20.083 11.3379 19.43H9.33789C9.33789 20.257 9.45898 21.02 9.76576 21.6615L11.57 20.7985ZM11.3379 19.43V1.22H9.33789V19.43H11.3379ZM10.3379 2.22H10.8179V0.22H10.3379V2.22ZM10.8179 2.22C11.2135 2.22 11.5987 2.26933 11.9755 2.36762L12.4803 0.432382C11.9371 0.290672 11.3822 0.22 10.8179 0.22V2.22ZM12.0155 2.37718C12.3341 2.44645 12.6059 2.5742 12.844 2.75935L14.0718 1.18065C13.5899 0.805794 13.0417 0.553552 12.4403 0.422823L12.0155 2.37718ZM12.8724 2.78068C13.0779 2.92906 13.2671 3.14977 13.4258 3.48146L15.23 2.61854C14.9487 2.03023 14.5579 1.53094 14.0434 1.15932L12.8724 2.78068ZM13.4258 3.48145C13.5604 3.76307 13.6579 4.19186 13.6579 4.82H15.6579C15.6579 4.00813 15.5353 3.25693 15.23 2.61854L13.4258 3.48145ZM13.6579 4.82V23H15.6579V4.82H13.6579Z" fill="black"/>
<path d="M23 9.34211V9.64211C23 10.1621 22.95 10.6621 22.85 11.1421C22.75 11.6221 22.57 12.0521 22.31 12.4321C22.05 12.7921 21.69 13.0921 21.23 13.3321C20.77 13.5521 20.17 13.6621 19.43 13.6621H1.22V13.1821C1.22 12.7021 1.28 12.2321 1.4 11.7721C1.5 11.3121 1.69 10.9021 1.97 10.5421C2.23 10.1821 2.59 9.89211 3.05 9.67211C3.51 9.45211 4.1 9.34211 4.82 9.34211H23Z" fill="url(#paint2_linear_1_141)"/>
<path d="M23 9.34211H23.5V8.84211H23V9.34211ZM22.85 11.1421L23.3395 11.2441L23.3395 11.2441L22.85 11.1421ZM22.31 12.4321L22.7155 12.7249L22.7227 12.7145L22.31 12.4321ZM21.23 13.3321L21.4457 13.7832L21.4536 13.7794L21.4613 13.7754L21.23 13.3321ZM1.22 13.6621H0.72V14.1621H1.22V13.6621ZM1.4 11.7721L1.88381 11.8983L1.8864 11.8884L1.88859 11.8783L1.4 11.7721ZM1.97 10.5421L2.36468 10.8491L2.37013 10.8421L2.37534 10.8349L1.97 10.5421ZM3.05 9.67211L2.83427 9.22104L2.83427 9.22104L3.05 9.67211ZM22.5 9.34211V9.64211H23.5V9.34211H22.5ZM22.5 9.64211C22.5 10.1299 22.4531 10.5956 22.3605 11.0401L23.3395 11.2441C23.4469 10.7286 23.5 10.1943 23.5 9.64211H22.5ZM22.3605 11.0401C22.2731 11.4598 22.1177 11.8277 21.8973 12.1498L22.7227 12.7145C23.0223 12.2765 23.2269 11.7844 23.3395 11.2441L22.3605 11.0401ZM21.9047 12.1394C21.6973 12.4265 21.4014 12.6787 20.9987 12.8888L21.4613 13.7754C21.9786 13.5055 22.4027 13.1577 22.7153 12.7249L21.9047 12.1394ZM21.0143 12.881C20.645 13.0577 20.1265 13.1621 19.43 13.1621V14.1621C20.2135 14.1621 20.895 14.0466 21.4457 13.7832L21.0143 12.881ZM19.43 13.1621H1.22V14.1621H19.43V13.1621ZM1.72 13.6621V13.1821H0.72V13.6621H1.72ZM1.72 13.1821C1.72 12.7443 1.77466 12.3167 1.88381 11.8983L0.91619 11.6459C0.785336 12.1475 0.72 12.6599 0.72 13.1821H1.72ZM1.88859 11.8783C1.97322 11.489 2.1321 11.1481 2.36468 10.8491L1.57532 10.2351C1.2479 10.6561 1.02678 11.1352 0.911411 11.6659L1.88859 11.8783ZM2.37534 10.8349C2.57953 10.5521 2.86988 10.3125 3.26573 10.1232L2.83427 9.22104C2.31011 9.47173 1.88047 9.81209 1.56466 10.2494L2.37534 10.8349ZM3.26573 10.1232C3.63653 9.94583 4.14593 9.84211 4.82 9.84211V8.84211C4.05407 8.84211 3.38346 8.95838 2.83427 9.22104L3.26573 10.1232ZM4.82 9.84211H23V8.84211H4.82V9.84211Z" fill="black"/>
<path d="M14.6579 23H14.3579C13.8379 23 13.3379 22.95 12.8579 22.85C12.3779 22.75 11.9479 22.57 11.5679 22.31C11.2079 22.05 10.9079 21.69 10.6679 21.23C10.4479 20.77 10.3379 20.17 10.3379 19.43V1.22H10.8179C11.2979 1.22 11.7679 1.28 12.2279 1.4C12.6879 1.5 13.0979 1.69 13.4579 1.97C13.8179 2.23 14.1079 2.59 14.3279 3.05C14.5479 3.51 14.6579 4.1 14.6579 4.82V23Z" fill="url(#paint3_linear_1_141)"/>
<defs>
<linearGradient id="paint0_linear_1_141" x1="58.5" y1="6" x2="58.5" y2="64" gradientUnits="userSpaceOnUse">
<stop/>
<stop offset="1"/>
</linearGradient>
<linearGradient id="paint1_linear_1_141" x1="12.5" y1="7" x2="12.5" y2="18" gradientUnits="userSpaceOnUse">
<stop stop-color="#83BAE1"/>
<stop offset="1" stop-color="#BAE183"/>
</linearGradient>
<linearGradient id="paint2_linear_1_141" x1="12" y1="11.5" x2="23" y2="11.5" gradientUnits="userSpaceOnUse">
<stop stop-color="#83BAE1"/>
<stop offset="1" stop-color="#BAE183"/>
</linearGradient>
<linearGradient id="paint3_linear_1_141" x1="12.5" y1="7" x2="12.5" y2="18" gradientUnits="userSpaceOnUse">
<stop stop-color="#83BAE1"/>
<stop offset="1" stop-color="#BAE183"/>
</linearGradient>
</defs>
</svg>
